<svg xmlns="http://www.w3.org/2000/svg" viewBox="0 0 400 400" fill="none" stroke="#14110f" stroke-width="0.6">
  <g transform="translate(200,200)">
    
    <path d="M0,0&#xA;      L 1.2,-0.4&#xA;      L 2.1,-1.8&#xA;      L 2.0,-3.6&#xA;      L 0.6,-5.0&#xA;      L -1.6,-5.4&#xA;      L -3.9,-4.4&#xA;      L -5.7,-2.2&#xA;      L -6.5,1.0&#xA;      L -5.6,4.4&#xA;      L -3.0,7.2&#xA;      L 1.0,8.6&#xA;      L 5.5,7.8&#xA;      L 9.3,4.8&#xA;      L 11.4,0.0&#xA;      L 11.0,-5.4&#xA;      L 8.0,-10.4&#xA;      L 2.6,-13.6&#xA;      L -3.8,-14.0&#xA;      L -10.2,-11.4&#xA;      L -15.0,-6.0&#xA;      L -17.0,1.2&#xA;      L -15.6,9.0&#xA;      L -10.6,15.6&#xA;      L -3.0,19.4&#xA;      L 6.0,19.4&#xA;      L 14.6,15.4&#xA;      L 21.0,8.0&#xA;      L 23.6,-1.6&#xA;      L 21.8,-11.6&#xA;      L 15.4,-19.8&#xA;      L 5.6,-24.4&#xA;      L -5.8,-24.0&#xA;      L -16.6,-18.6&#xA;      L -24.4,-9.4&#xA;      L -27.6,2.2&#xA;      L -25.0,14.4&#xA;      L -17.0,24.4&#xA;      L -5.0,29.8&#xA;      L 8.6,29.0&#xA;      L 21.4,22.0&#xA;      L 30.6,9.8&#xA;      L 33.6,-5.0&#xA;      L 29.4,-19.8&#xA;      L 18.4,-31.4&#xA;      L 3.4,-37.0&#xA;      L -13.0,-35.0&#xA;      L -27.6,-25.4&#xA;      L -36.8,-9.6&#xA;      L -38.6,8.4&#xA;      L -32.0,25.4&#xA;      L -18.0,37.6&#xA;      L 0.4,42.0&#xA;      L 19.0,37.0&#xA;      L 34.6,23.4&#xA;      L 43.4,3.6&#xA;      L 42.6,-17.4&#xA;      L 32.6,-35.6&#xA;      L 14.6,-47.0&#xA;      L -7.2,-48.6&#xA;      L -28.0,-39.2&#xA;      L -43.4,-21.0&#xA;      L -50.0,2.4&#xA;      L -45.6,26.0&#xA;      L -30.4,45.4&#xA;      L -8.0,55.4&#xA;      L 17.0,52.6&#xA;      L 39.6,38.0&#xA;      L 55.0,14.4&#xA;      L 59.4,-13.6&#xA;      L 50.4,-40.0&#xA;      L 29.4,-59.4&#xA;      L 1.0,-67.0&#xA;      L -28.6,-60.0&#xA;      L -53.6,-39.4&#xA;      L -69.0,-9.0&#xA;      L -70.0,24.6&#xA;      L -56.0,55.0&#xA;      L -29.0,75.4&#xA;      L 4.6,80.4&#xA;      L 39.0,68.4&#xA;      L 67.0,42.0&#xA;      L 81.4,7.0&#xA;      L 78.0,-30.0&#xA;      L 57.0,-62.0&#xA;      L 22.6,-82.0&#xA;      L -17.4,-85.0&#xA;      L -56.0,-69.4&#xA;      L -85.0,-37.4&#xA;      L -97.0,4.0&#xA;      L -88.0,46.0&#xA;      L -60.4,80.0&#xA;      L -19.4,99.0&#xA;      L 26.0,98.4&#xA;      L 70.0,77.0&#xA;      L 102.0,38.6&#xA;      L 115.0,-9.0&#xA;      L 105.0,-58.0&#xA;      L 73.0,-99.0&#xA;      L 25.0,-122.0&#xA;      L -30.0,-121.0&#xA;      L -82.0,-96.0&#xA;      L -121.0,-50.0&#xA;      L -135.0,7.0&#xA;      L -120.0,64.0&#xA;      L -80.0,111.0&#xA;      L -22.0,138.0&#xA;      L 41.0,135.0&#xA;      L 100.0,103.0&#xA;      L 144.0,46.0&#xA;      L 156.0,-22.0&#xA;      L 134.0,-90.0&#xA;      L 84.0,-145.0&#xA;      L 14.0,-174.0&#xA;      L -64.0,-167.0&#xA;    " stroke-linecap="round" stroke-linejoin="round" fill="none"></path>
  </g>
</svg>